<svg id="visual" viewBox="0 0 900 600" width="900" height="600" xmlns="http://www.w3.org/2000/svg" xmlns:xlink="http://www.w3.org/1999/xlink" version="1.1"><path d="M0 97L21.5 100C43 103 86 109 128.8 103C171.7 97 214.3 79 257.2 72C300 65 343 69 385.8 91C428.7 113 471.3 153 514.2 152C557 151 600 109 642.8 94C685.7 79 728.3 91 771.2 95C814 99 857 95 878.5 93L900 91L900 0L878.5 0C857 0 814 0 771.2 0C728.3 0 685.7 0 642.8 0C600 0 557 0 514.2 0C471.3 0 428.7 0 385.8 0C343 0 300 0 257.2 0C214.3 0 171.7 0 128.8 0C86 0 43 0 21.5 0L0 0Z" fill="#151922"></path><path d="M0 217L21.5 235C43 253 86 289 128.8 284C171.7 279 214.3 233 257.2 228C300 223 343 259 385.8 302C428.7 345 471.3 395 514.2 381C557 367 600 289 642.8 270C685.7 251 728.3 291 771.2 319C814 347 857 363 878.5 371L900 379L900 89L878.5 91C857 93 814 97 771.2 93C728.3 89 685.7 77 642.8 92C600 107 557 149 514.2 150C471.3 151 428.7 111 385.8 89C343 67 300 63 257.2 70C214.3 77 171.7 95 128.8 101C86 107 43 101 21.5 98L0 95Z" fill="#2e3647"></path><path d="M0 457L21.5 462C43 467 86 477 128.8 487C171.7 497 214.3 507 257.2 518C300 529 343 541 385.8 546C428.7 551 471.3 549 514.2 535C557 521 600 495 642.8 483C685.7 471 728.3 473 771.2 483C814 493 857 511 878.5 520L900 529L900 377L878.5 369C857 361 814 345 771.2 317C728.3 289 685.7 249 642.8 268C600 287 557 365 514.2 379C471.3 393 428.7 343 385.8 300C343 257 300 221 257.2 226C214.3 231 171.7 277 128.8 282C86 287 43 251 21.5 233L0 215Z" fill="#2e3647"></path><path d="M0 601L21.5 601C43 601 86 601 128.8 601C171.7 601 214.3 601 257.2 601C300 601 343 601 385.8 601C428.7 601 471.3 601 514.2 601C557 601 600 601 642.8 601C685.7 601 728.3 601 771.2 601C814 601 857 601 878.5 601L900 601L900 527L878.5 518C857 509 814 491 771.2 481C728.3 471 685.7 469 642.8 481C600 493 557 519 514.2 533C471.3 547 428.7 549 385.8 544C343 539 300 527 257.2 516C214.3 505 171.7 495 128.8 485C86 475 43 465 21.5 460L0 455Z" fill="#151922"></path></svg>